<svg viewBox="0 -64 512 512" xmlns="http://www.w3.org/2000/svg"><path fill="#FFFFFF" d="m 448 416 h -384 q -27 -1 -45 -19 t -19 -45 v -320 q 1 -27 19 -45 t 45 -19 h 384 q 27 1 45 19 t 19 45 v 320 q -1 27 -19 45 t -45 19 v 0 z m 16 -384 q -1 -15 -16 -16 h -384 q -15 1 -16 16 v 320 q 1 15 16 16 h 384 q 15 -1 16 -16 v -320 v 0 z m -224 160 q 0 10 -8 18 l -96 88 q -17 13 -34 -2 q -13 -17 2 -34 l 77 -70 l -77 -70 q -15 -17 -2 -34 q 8 -8 18 -8 q 9 0 16 6 l 96 88 q 8 7 8 18 v 0 z m 152 128 h -144 q -22 -2 -24 -24 q 2 -22 24 -24 h 144 q 22 2 24 24 q -2 22 -24 24 v 0 z" /></svg>