<?xml version="1.0" encoding="utf-8"?>
<svg width="300px" height="300px" viewBox="0 0 600 600" xmlns="http://www.w3.org/2000/svg" shape-rendering="geometricPrecision">
  <rect x="53.094" y="181.014" width="492.144" height="219.644"
    style="fill: rgb(86, 101, 126); stroke: rgb(255, 255, 255); stroke-width: 4;" 
    rx="109.822" ry="109.822"/>

  <path d="M 235 247 L 235 331.36 L 223.3 331.36 L 180.4 269.48 L 179.62 269.48 
           L 179.62 331.36 L 166.9 331.36 L 166.9 247 L 178.68 247 L 221.6 308.96 
           L 222.38 308.96 L 222.38 247 L 235 247 Z" 
           style="fill: rgb(255, 255, 255);"/>

  <path d="M 346.28 331.36 L 322.88 247 L 336.26 247 L 352.7 312.32 L 353.48 312.32 
           L 370.58 247 L 383.84 247 L 400.94 312.36 L 401.72 312.36 L 418.12 247 
           L 431.54 247 L 408.1 331.36 L 395.3 331.36 L 377.54 268.16 L 376.88 268.16 
           L 359.12 331.36 L 346.28 331.36 Z" 
           style="fill: rgb(255, 255, 255);"/>

  <path d="M 252.62 331.36 L 252.62 247 L 305.5 247 L 305.5 257.96 L 265.34 257.96 
           L 265.34 283.66 L 302.74 283.66 L 302.74 294.58 L 265.34 294.58 L 265.34 320.4 
           L 306 320.4 L 306 331.36 L 252.62 331.36 Z" 
           style="fill: rgb(255, 255, 255);"/>
</svg>
