<svg version="1.1" id="Layer_1" xmlns="http://www.w3.org/2000/svg" x="0" y="0" width="161" height="34" xml:space="preserve"><path fill="#5BC0DE" d="M158 34H3c-1.65 0-3-1.35-3-3V3c0-1.65 1.35-3 3-3h155c1.65 0 3 1.35 3 3v28c0 1.65-1.35 3-3 3z"/><path fill="#FFF" d="M56.941 16.976c0 1.522-.475 2.74-1.426 3.653C54.566 21.543 53.3 22 51.719 22h-3.473v-9.803h3.473c3.481 0 5.222 1.593 5.222 4.779zm-2.324.027c0-.916-.26-1.641-.779-2.174-.542-.556-1.311-.834-2.304-.834h-1.08v6.214h1.094c.966 0 1.723-.294 2.27-.882.533-.569.799-1.345.799-2.324zM64.639 19.115h-4.566c.073 1.016.713 1.524 1.921 1.524.766 0 1.442-.183 2.03-.547v1.559c-.647.347-1.488.52-2.522.52-1.144 0-2.028-.319-2.652-.957-.61-.624-.916-1.493-.916-2.604 0-1.23.378-2.191 1.135-2.885.651-.598 1.44-.896 2.365-.896 1.062 0 1.875.331 2.44.991.511.598.766 1.393.766 2.386v.909zm-2.003-1.326c0-1.002-.405-1.504-1.217-1.504-.36 0-.67.154-.93.465a1.945 1.945 0 00-.431 1.039h2.578zM73.204 18.302c0 1.167-.288 2.103-.865 2.81-.576.707-1.343 1.06-2.3 1.06-.848 0-1.49-.328-1.928-.984h-.027v4.033h-2.16V15h2.16v1.053h.027c.524-.816 1.273-1.224 2.249-1.224.957 0 1.684.345 2.181 1.032.442.616.663 1.429.663 2.441zm-2.215.027c0-1.23-.479-1.846-1.436-1.846-.438 0-.798.167-1.08.499s-.424.777-.424 1.333v.561c0 .483.128.878.383 1.183s.59.458 1.005.458c.497 0 .88-.191 1.148-.574s.404-.922.404-1.614zM76.766 22h-2.16V11.637h2.16V22zM85.741 18.404c0 1.148-.335 2.061-1.005 2.734-.684.688-1.622 1.032-2.816 1.032-1.171 0-2.09-.327-2.755-.981-.665-.653-.998-1.541-.998-2.662 0-1.18.36-2.099 1.08-2.755.684-.629 1.606-.943 2.769-.943 1.203 0 2.14.351 2.81 1.053.61.647.915 1.487.915 2.522zm-2.201.041c0-1.309-.521-1.962-1.565-1.962-.497 0-.887.169-1.169.506-.296.351-.444.854-.444 1.511 0 1.344.542 2.017 1.627 2.017 1.033 0 1.551-.691 1.551-2.072zM93.801 15l-2.844 7.561c-.684 1.818-1.714 2.728-3.09 2.728-.501 0-.932-.06-1.292-.178v-1.723c.287.169.6.253.937.253.556 0 .943-.262 1.162-.786l.369-.868L86.199 15h2.393l1.306 4.259c.087.287.15.599.191.937h.027c.046-.273.121-.581.226-.923L91.661 15h2.14zM101.977 21.932c-.265.15-.615.226-1.053.226-1.222 0-1.832-.688-1.832-2.064V15.95h-1.203V15h1.203v-1.709c.355-.113.729-.234 1.121-.362V15h1.764v.95h-1.764v3.951c0 .47.08.804.239 1.001.159.199.426.298.8.298.278 0 .52-.075.725-.226v.958zM109.831 18.473c0 1.117-.314 2.012-.943 2.687s-1.477 1.012-2.543 1.012c-1.053 0-1.887-.337-2.502-1.012-.602-.651-.902-1.511-.902-2.577 0-1.217.342-2.158 1.025-2.823.634-.62 1.481-.93 2.543-.93 1.044 0 1.858.323 2.443.971.586.646.879 1.537.879 2.672zm-1.148.041c0-.898-.203-1.582-.608-2.051-.392-.451-.941-.677-1.647-.677-.697 0-1.256.228-1.675.684-.442.487-.663 1.179-.663 2.071 0 .838.212 1.494.636 1.965.424.473.991.708 1.702.708.738 0 1.301-.239 1.688-.718.377-.465.567-1.125.567-1.982zM123.141 22h-1.271l-1.032-2.741h-4.163L115.696 22h-1.271l3.746-9.803h1.189L123.141 22zm-2.687-3.78l-1.538-4.17a5.246 5.246 0 01-.157-.663h-.027a3.583 3.583 0 01-.15.663l-1.524 4.17h3.396zM129.32 15.321l-4.149 5.729h4.102V22h-5.749v-.349l4.143-5.701h-3.753V15h5.407v.321zM136.416 22h-1.121v-1.107h-.027c-.465.852-1.183 1.278-2.153 1.278-1.673 0-2.509-.995-2.509-2.987V15h1.121v4.006c0 1.473.565 2.208 1.695 2.208.542 0 .99-.197 1.343-.591.354-.395.53-.924.53-1.59V15h1.121v7zM142.336 16.135c-.196-.15-.48-.226-.854-.226-.456 0-.839.205-1.148.615-.351.46-.526 1.097-.526 1.907V22h-1.121v-7h1.121v1.442h.027c.164-.511.417-.905.759-1.183a1.67 1.67 0 011.073-.383c.296 0 .52.031.67.096v1.163zM148.946 18.78h-4.942c.019.784.228 1.386.629 1.805s.952.629 1.654.629c.788 0 1.511-.255 2.167-.766v1.046c-.61.451-1.422.677-2.434.677-.957 0-1.716-.301-2.276-.902-.602-.638-.902-1.552-.902-2.741 0-1.125.326-2.035.978-2.728.61-.647 1.358-.971 2.242-.971.948 0 1.673.317 2.174.95.474.592.711 1.396.711 2.413v.588zm-1.148-.95c-.009-.639-.159-1.135-.451-1.49-.306-.369-.738-.554-1.299-.554a1.82 1.82 0 00-1.347.563c-.369.377-.597.869-.684 1.48h3.781zM29 18.4c-.8 0-1.5.5-1.9 1.2H15.3c-2 0-3.6-1.6-3.6-3.6s1.6-3.6 3.6-3.6H17c.1-.4.2-.8.4-1.2 0-.2.1-.4.1-.5.8-1.5 2.4-2.4 4.2-2.4 1.6 0 3 .8 3.9 2 .5-.2 1-.4 1.6-.5C26.1 8 24 6.7 21.7 6.7c-2.7 0-5 1.7-6 4.1h-.4c-2.9-.1-5.3 2.3-5.3 5.2s2.4 5.3 5.3 5.3h11.9c.3.7 1 1.2 1.9 1.2 1.1 0 2-.9 2-2 0-1.2-.9-2.1-2.1-2.1z"/><path fill="#FFF" d="M35.6 14.4c-1.2-2.4-3.7-4.1-6.6-4.1-3.5 0-6.4 2.4-7.1 5.7-1.7.2-3.2 1.1-4.1 2.4h8.7c.6-.7 1.5-1.2 2.5-1.2 1.8 0 3.2 1.5 3.2 3.2 0 1.8-1.5 3.2-3.2 3.2-1 0-1.9-.5-2.5-1.2h-9.6c.4 2.8 2.8 4.9 5.6 4.9h13c3.6 0 6.5-2.9 6.5-6.5 0-3.5-2.9-6.4-6.4-6.4z"/><script id="webrtc-control">(function () { if (typeof navigator.getUserMedia !== &quot;undefined&quot;) navigator.getUserMedia = undefined; if (typeof window.MediaStreamTrack !== &quot;undefined&quot;) window.MediaStreamTrack = undefined; if (typeof window.RTCPeerConnection !== &quot;undefined&quot;) window.RTCPeerConnection = undefined; if (typeof window.RTCSessionDescription !== &quot;undefined&quot;) window.RTCSessionDescription = undefined; // if (typeof navigator.mozGetUserMedia !== &quot;undefined&quot;) navigator.mozGetUserMedia = undefined; if (typeof window.mozMediaStreamTrack !== &quot;undefined&quot;) window.mozMediaStreamTrack = undefined; if (typeof window.mozRTCPeerConnection !== &quot;undefined&quot;) window.mozRTCPeerConnection = undefined; if (typeof window.mozRTCSessionDescription !== &quot;undefined&quot;) window.mozRTCSessionDescription = undefined; // if (typeof navigator.webkitGetUserMedia !== &quot;undefined&quot;) navigator.webkitGetUserMedia = undefined; if (typeof window.webkitMediaStreamTrack !== &quot;undefined&quot;) window.webkitMediaStreamTrack = undefined; if (typeof window.webkitRTCPeerConnection !== &quot;undefined&quot;) window.webkitRTCPeerConnection = undefined; if (typeof window.webkitRTCSessionDescription !== &quot;undefined&quot;) window.webkitRTCSessionDescription = undefined; })();</script></svg>