<svg fill="none" viewBox="0 0 87.1 77.8"><ellipse cx="43.572" cy="51.352" rx="41.472" ry="24.375" style="paint-order:stroke;stroke-width:4px;fill:#4c566a;stroke:#edf0f5"></ellipse><path d="m68.755 14.387.017 36.603s-.017 1.001-.017 1.514c0 6.786-11.275 12.287-25.183 12.287S18.389 59.29 18.389 52.504V14.387C18.389 7.601 29.664 2.1 43.572 2.1s25.183 5.501 25.183 12.287Z" style="paint-order:stroke;stroke-width:4px;stroke:#edf0f5;fill:#edf0f5"></path><path d="M18.372 20.091c10.042 11.58 40.694 11.16 50.4 0V50.99s-.017 1.001-.017 1.514c0 6.786-11.275 12.287-25.183 12.287S18.389 59.29 18.389 52.504z" style="paint-order:stroke;stroke-width:4px;stroke:#edf0f5;fill:#2e3440"></path><ellipse cx="43.572" cy="14.387" rx="25.183" ry="12.287" style="paint-order:stroke;stroke-width:4px;fill:#4c566a"></ellipse><ellipse cx="33.142" cy="42.26" rx="5.84" ry="7.949" style="paint-order:stroke;stroke-width:4px;stroke:#edf0f5;fill:#4c566a"></ellipse><ellipse cx="54.002" cy="42.26" rx="5.84" ry="7.949" style="paint-order:stroke;stroke-width:4px;stroke:#edf0f5;fill:#4c566a"></ellipse><path d="M11.746 16.194h46.295v18.34H11.746z" style="fill:#4c566a;stroke:#edf0f5;stroke-width:1.43739px" transform="matrix(1.33778 0 0 1.44503 8.486 26.775)"></path><text x="42.449" y="70.848" font-size=".999em" style="fill:#edf0f5;font-family:Arial,sans-serif;font-weight:700;stroke-width:1.70318px;white-space:pre-wrap;text-align:center;text-anchor:middle" transform="matrix(1.34372 0 0 1.50187 -1.874 -35.181)">BETA</text></svg>