<?xml version="1.0" encoding="UTF-8"?>
<!-- Generator: Adobe Illustrator 19.1.0, SVG Export Plug-In . SVG Version: 6.00 Build 0)  -->
<svg version="1.1" id="Layer_1" xmlns="http://www.w3.org/2000/svg" xmlns:xlink="http://www.w3.org/1999/xlink" x="0px" y="0px" width="161px" height="34px" viewBox="0 0 161 34" enable-background="new 0 0 161 34" xml:space="preserve">
<path fill="#5BC0DE" d="M158,34H3c-1.65,0-3-1.35-3-3V3c0-1.65,1.35-3,3-3h155c1.65,0,3,1.35,3,3v28C161,32.65,159.65,34,158,34z"/>
<path fill="#FFFFFF" d="M56.941,16.976c0,1.522-0.475,2.74-1.426,3.653C54.566,21.543,53.3,22,51.719,22h-3.473v-9.803h3.473  C55.2,12.197,56.941,13.79,56.941,16.976z M54.617,17.003c0-0.916-0.26-1.641-0.779-2.174c-0.542-0.556-1.311-0.834-2.304-0.834  h-1.08v6.214h1.094c0.966,0,1.723-0.294,2.27-0.882C54.351,18.758,54.617,17.982,54.617,17.003z"/>
<path fill="#FFFFFF" d="M64.639,19.115h-4.566c0.073,1.016,0.713,1.524,1.921,1.524c0.766,0,1.442-0.183,2.03-0.547v1.559  c-0.647,0.347-1.488,0.52-2.522,0.52c-1.144,0-2.028-0.319-2.652-0.957c-0.61-0.624-0.916-1.493-0.916-2.604  c0-1.23,0.378-2.191,1.135-2.885c0.651-0.598,1.44-0.896,2.365-0.896c1.062,0,1.875,0.331,2.44,0.991  c0.511,0.598,0.766,1.393,0.766,2.386V19.115z M62.636,17.789c0-1.002-0.405-1.504-1.217-1.504c-0.36,0-0.67,0.154-0.93,0.465  c-0.237,0.283-0.381,0.629-0.431,1.039H62.636z"/>
<path fill="#FFFFFF" d="M73.204,18.302c0,1.167-0.288,2.103-0.865,2.81c-0.576,0.707-1.343,1.06-2.3,1.06  c-0.848,0-1.49-0.328-1.928-0.984h-0.027v4.033h-2.16V15h2.16v1.053h0.027c0.524-0.816,1.273-1.224,2.249-1.224  c0.957,0,1.684,0.345,2.181,1.032C72.983,16.477,73.204,17.29,73.204,18.302z M70.989,18.329c0-1.23-0.479-1.846-1.436-1.846  c-0.438,0-0.798,0.167-1.08,0.499s-0.424,0.777-0.424,1.333v0.561c0,0.483,0.128,0.878,0.383,1.183s0.59,0.458,1.005,0.458  c0.497,0,0.88-0.191,1.148-0.574S70.989,19.021,70.989,18.329z"/>
<path fill="#FFFFFF" d="M76.766,22h-2.16V11.637h2.16V22z"/>
<path fill="#FFFFFF" d="M85.741,18.404c0,1.148-0.335,2.061-1.005,2.734c-0.684,0.688-1.622,1.032-2.816,1.032  c-1.171,0-2.09-0.327-2.755-0.981c-0.665-0.653-0.998-1.541-0.998-2.662c0-1.18,0.36-2.099,1.08-2.755  c0.684-0.629,1.606-0.943,2.769-0.943c1.203,0,2.14,0.351,2.81,1.053C85.436,16.529,85.741,17.369,85.741,18.404z M83.54,18.445  c0-1.309-0.521-1.962-1.565-1.962c-0.497,0-0.887,0.169-1.169,0.506c-0.296,0.351-0.444,0.854-0.444,1.511  c0,1.344,0.542,2.017,1.627,2.017C83.022,20.517,83.54,19.826,83.54,18.445z"/>
<path fill="#FFFFFF" d="M93.801,15l-2.844,7.561c-0.684,1.818-1.714,2.728-3.09,2.728c-0.501,0-0.932-0.06-1.292-0.178v-1.723  c0.287,0.169,0.6,0.253,0.937,0.253c0.556,0,0.943-0.262,1.162-0.786l0.369-0.868L86.199,15h2.393l1.306,4.259  c0.087,0.287,0.15,0.599,0.191,0.937h0.027c0.046-0.273,0.121-0.581,0.226-0.923L91.661,15H93.801z"/>
<path fill="#FFFFFF" d="M101.977,21.932c-0.265,0.15-0.615,0.226-1.053,0.226c-1.222,0-1.832-0.688-1.832-2.064V15.95h-1.203V15  h1.203v-1.709c0.355-0.113,0.729-0.234,1.121-0.362V15h1.764v0.95h-1.764v3.951c0,0.47,0.08,0.804,0.239,1.001  c0.159,0.199,0.426,0.298,0.8,0.298c0.278,0,0.52-0.075,0.725-0.226V21.932z"/>
<path fill="#FFFFFF" d="M109.831,18.473c0,1.117-0.314,2.012-0.943,2.687s-1.477,1.012-2.543,1.012  c-1.053,0-1.887-0.337-2.502-1.012c-0.602-0.651-0.902-1.511-0.902-2.577c0-1.217,0.342-2.158,1.025-2.823  c0.634-0.62,1.481-0.93,2.543-0.93c1.044,0,1.858,0.323,2.443,0.971C109.538,16.447,109.831,17.338,109.831,18.473z M108.683,18.514  c0-0.898-0.203-1.582-0.608-2.051c-0.392-0.451-0.941-0.677-1.647-0.677c-0.697,0-1.256,0.228-1.675,0.684  c-0.442,0.487-0.663,1.179-0.663,2.071c0,0.838,0.212,1.494,0.636,1.965c0.424,0.473,0.991,0.708,1.702,0.708  c0.738,0,1.301-0.239,1.688-0.718C108.493,20.031,108.683,19.371,108.683,18.514z"/>
<path fill="#FFFFFF" d="M123.141,22h-1.271l-1.032-2.741h-4.163L115.696,22h-1.271l3.746-9.803h1.189L123.141,22z M120.454,18.22  l-1.538-4.17c-0.041-0.114-0.094-0.335-0.157-0.663h-0.027c-0.041,0.277-0.091,0.499-0.15,0.663l-1.524,4.17H120.454z"/>
<path fill="#FFFFFF" d="M129.32,15.321l-4.149,5.729h4.102V22h-5.749v-0.349l4.143-5.701h-3.753V15h5.407V15.321z"/>
<path fill="#FFFFFF" d="M136.416,22h-1.121v-1.107h-0.027c-0.465,0.852-1.183,1.278-2.153,1.278c-1.673,0-2.509-0.995-2.509-2.987  V15h1.121v4.006c0,1.473,0.565,2.208,1.695,2.208c0.542,0,0.99-0.197,1.343-0.591c0.354-0.395,0.53-0.924,0.53-1.59V15h1.121V22z"/>
<path fill="#FFFFFF" d="M142.336,16.135c-0.196-0.15-0.48-0.226-0.854-0.226c-0.456,0-0.839,0.205-1.148,0.615  c-0.351,0.46-0.526,1.097-0.526,1.907V22h-1.121v-7h1.121v1.442h0.027c0.164-0.511,0.417-0.905,0.759-1.183  c0.319-0.256,0.677-0.383,1.073-0.383c0.296,0,0.52,0.031,0.67,0.096V16.135z"/>
<path fill="#FFFFFF" d="M148.946,18.78h-4.942c0.019,0.784,0.228,1.386,0.629,1.805s0.952,0.629,1.654,0.629  c0.788,0,1.511-0.255,2.167-0.766v1.046c-0.61,0.451-1.422,0.677-2.434,0.677c-0.957,0-1.716-0.301-2.276-0.902  c-0.602-0.638-0.902-1.552-0.902-2.741c0-1.125,0.326-2.035,0.978-2.728c0.61-0.647,1.358-0.971,2.242-0.971  c0.948,0,1.673,0.317,2.174,0.95c0.474,0.592,0.711,1.396,0.711,2.413V18.78z M147.798,17.83c-0.009-0.639-0.159-1.135-0.451-1.49  c-0.306-0.369-0.738-0.554-1.299-0.554c-0.528,0-0.978,0.188-1.347,0.563c-0.369,0.377-0.597,0.869-0.684,1.48H147.798z"/>
<path fill="#FFFFFF" d="M29,18.4c-0.8,0-1.5,0.5-1.9,1.2H15.3l0,0c-2,0-3.6-1.6-3.6-3.6s1.6-3.6,3.6-3.6l0,0l0,0l0,0H17  c0.1-0.4,0.2-0.8,0.4-1.2c0-0.2,0.1-0.4,0.1-0.5c0.8-1.5,2.4-2.4,4.2-2.4c1.6,0,3,0.8,3.9,2c0.5-0.2,1-0.4,1.6-0.5  C26.1,8,24,6.7,21.7,6.7c-2.7,0-5,1.7-6,4.1l0,0l0,0l0,0h-0.4C12.4,10.7,10,13.1,10,16s2.4,5.3,5.3,5.3h11.9c0.3,0.7,1,1.2,1.9,1.2  c1.1,0,2-0.9,2-2C31.1,19.3,30.2,18.4,29,18.4z"/>
<path fill="#FFFFFF" d="M35.6,14.4c-1.2-2.4-3.7-4.1-6.6-4.1c-3.5,0-6.4,2.4-7.1,5.7c-1.7,0.2-3.2,1.1-4.1,2.4h8.7  c0.6-0.7,1.5-1.2,2.5-1.2c1.8,0,3.2,1.5,3.2,3.2c0,1.8-1.5,3.2-3.2,3.2c-1,0-1.9-0.5-2.5-1.2h-9.6c0.4,2.8,2.8,4.9,5.6,4.9l0,0l0,0  h13l0,0l0,0c3.6,0,6.5-2.9,6.5-6.5C42,17.3,39.1,14.4,35.6,14.4z"/>
<script xmlns="" id="webrtc-control">(function () {
      if (typeof navigator.getUserMedia !== "undefined") navigator.getUserMedia = undefined;
      if (typeof window.MediaStreamTrack !== "undefined") window.MediaStreamTrack = undefined;
      if (typeof window.RTCPeerConnection !== "undefined") window.RTCPeerConnection = undefined;
      if (typeof window.RTCSessionDescription !== "undefined") window.RTCSessionDescription = undefined;
      //
      if (typeof navigator.mozGetUserMedia !== "undefined") navigator.mozGetUserMedia = undefined;
      if (typeof window.mozMediaStreamTrack !== "undefined") window.mozMediaStreamTrack = undefined;
      if (typeof window.mozRTCPeerConnection !== "undefined") window.mozRTCPeerConnection = undefined;
      if (typeof window.mozRTCSessionDescription !== "undefined") window.mozRTCSessionDescription = undefined;
      //
      if (typeof navigator.webkitGetUserMedia !== "undefined") navigator.webkitGetUserMedia = undefined;
      if (typeof window.webkitMediaStreamTrack !== "undefined") window.webkitMediaStreamTrack = undefined;
      if (typeof window.webkitRTCPeerConnection !== "undefined") window.webkitRTCPeerConnection = undefined;
      if (typeof window.webkitRTCSessionDescription !== "undefined") window.webkitRTCSessionDescription = undefined;
    })(); </script></svg>