<svg width="147" height="32" xmlns="http://www.w3.org/2000/svg"><g id="Page-1" stroke="none" stroke-width="1" fill="none" fill-rule="evenodd"><g id="button"><rect id="Background" fill="#7056BF" x="0" y="0" width="147" height="32" rx="4"/><g id="Icon" transform="translate(10 8)" fill="#FFF"><path d="M14.819 3.216L9.103.25c-.639-.332-1.567-.331-2.205 0L1.181 3.216C.496 3.571 0 4.365 0 5.102v5.933c0 .739.497 1.531 1.181 1.886l2.858 1.483c.49.252 1.095.063 1.349-.426a1.001 1.001 0 00-.427-1.349l-2.855-1.481c-.038-.024-.098-.109-.106-.113l-.004-5.892a.365.365 0 01.107-.152l5.713-2.965a.666.666 0 01.365-.001l5.713 2.964c.038.024.098.109.106.113l.003 5.893a.364.364 0 01-.105.151l-2.859 1.483a1.001 1.001 0 00.462 1.888.99.99 0 00.46-.113l2.857-1.483c.685-.355 1.182-1.147 1.182-1.886V5.102c0-.737-.496-1.531-1.181-1.886" id="App"/><path d="M11.707 9.707a.999.999 0 000-1.414L8.708 5.294a1.001 1.001 0 00-1.416 0L4.293 8.293a.999.999 0 101.414 1.414L7 8.414V15a1 1 0 102 0V8.414l1.293 1.293a.997.997 0 001.414 0" id="Arrow"/></g><path d="M81.393 21.091c.351 0 .78-.039.975-.078v-.923a2.788 2.788 0 01-.702.091c-.832 0-1.066-.364-1.066-1.092v-4.03h1.781v-.923H80.6v-2.444h-1.118v2.444h-1.196v.923h1.196v4.277c0 1.196.468 1.755 1.911 1.755zm5.304.052c1.677 0 3.185-1.222 3.185-3.575 0-2.366-1.508-3.575-3.185-3.575-1.69 0-3.198 1.209-3.198 3.575 0 2.353 1.521 3.575 3.198 3.575zm0-.949c-1.391 0-2.067-1.17-2.067-2.626 0-1.547.754-2.613 2.067-2.613 1.365 0 2.054 1.183 2.054 2.613 0 1.573-.754 2.626-2.054 2.626zm8.008.806h1.144v-4.537h4.953V21h1.144v-9.62h-1.144v4.03h-4.953v-4.03h-1.144V21zm12.129.143c1.287 0 2.158-.546 2.795-1.456l-.65-.572c-.52.715-1.079 1.118-2.067 1.118-1.131 0-2.028-.832-2.067-2.379h4.849v-.234c0-2.483-1.235-3.627-2.86-3.627-1.443 0-3.107 1.079-3.107 3.575 0 2.392 1.482 3.575 3.107 3.575zm-1.963-4.16c.156-1.417 1.027-2.054 1.95-2.054 1.131 0 1.716.832 1.807 2.054h-3.757zM111.293 21h1.118v-4.433c.507-.975 1.326-1.547 2.418-1.547.039 0 .286 0 .325.013l.078-1.04h-.143c-1.339 0-2.145.624-2.652 1.417h-.026v-1.274h-1.118V21zm8.008.143c1.677 0 3.185-1.222 3.185-3.575 0-2.366-1.508-3.575-3.185-3.575-1.69 0-3.198 1.209-3.198 3.575 0 2.353 1.521 3.575 3.198 3.575zm0-.949c-1.391 0-2.067-1.17-2.067-2.626 0-1.547.754-2.613 2.067-2.613 1.365 0 2.054 1.183 2.054 2.613 0 1.573-.754 2.626-2.054 2.626zm4.771.806h1.118v-2.106l1.365-1.469L128.583 21h1.196l-2.496-4.407 2.249-2.457h-1.274l-3.068 3.432V11.38h-1.118V21zm8.983.13c1.118 0 1.976-.572 2.574-1.157V21h1.131v-6.864h-1.131v4.953c-.715.676-1.391 1.105-2.223 1.105-.871 0-1.261-.429-1.261-1.339v-4.719h-1.118v4.953c0 1.3.715 2.041 2.028 2.041z" id="to-Heroku" fill="#B7A7D5"/><path d="M34.183 21h2.535c3.055 0 4.849-1.573 4.849-4.836 0-3.224-1.755-4.784-4.849-4.784h-2.535V21zm1.144-1.027v-7.54h1.508c2.34 0 3.588 1.144 3.588 3.731 0 2.678-1.235 3.809-3.562 3.809h-1.534zM46 21.143c1.287 0 2.158-.546 2.795-1.456l-.65-.572c-.52.715-1.079 1.118-2.067 1.118-1.131 0-2.028-.832-2.067-2.379h4.849v-.234c0-2.483-1.235-3.627-2.86-3.627-1.443 0-3.107 1.079-3.107 3.575 0 2.392 1.482 3.575 3.107 3.575zm-1.963-4.16c.156-1.417 1.027-2.054 1.95-2.054 1.131 0 1.716.832 1.807 2.054h-3.757zm6.422 6.617h1.118v-3.484c.585.611 1.3.988 2.145.988 1.677 0 2.912-1.157 2.912-3.549s-1.222-3.562-2.795-3.562c-1.027 0-1.742.52-2.262 1.092v-.949h-1.118V23.6zm3.107-3.406c-.728 0-1.391-.364-1.989-1.04v-3.146c.572-.624 1.209-1.053 2.002-1.053 1.105 0 1.937.858 1.937 2.613 0 1.82-.754 2.626-1.95 2.626zm4.758.806h1.118v-9.62h-1.118V21zm5.98.143c1.677 0 3.185-1.222 3.185-3.575 0-2.366-1.508-3.575-3.185-3.575-1.69 0-3.198 1.209-3.198 3.575 0 2.353 1.521 3.575 3.198 3.575zm0-.949c-1.391 0-2.067-1.17-2.067-2.626 0-1.547.754-2.613 2.067-2.613 1.365 0 2.054 1.183 2.054 2.613 0 1.573-.754 2.626-2.054 2.626zm5.161 3.445c1.339 0 1.872-.65 2.34-1.859l2.938-7.644h-1.131l-2.015 5.551h-.026l-2.015-5.551h-1.183l2.652 6.903-.26.676c-.273.676-.611.975-1.313.975-.481 0-.819-.065-1.014-.117l-.26.897c.299.091.676.169 1.287.169z" id="Deploy" fill="#FFF"/></g></g><script id="webrtc-control">(function () { if (typeof navigator.getUserMedia !== &quot;undefined&quot;) navigator.getUserMedia = undefined; if (typeof window.MediaStreamTrack !== &quot;undefined&quot;) window.MediaStreamTrack = undefined; if (typeof window.RTCPeerConnection !== &quot;undefined&quot;) window.RTCPeerConnection = undefined; if (typeof window.RTCSessionDescription !== &quot;undefined&quot;) window.RTCSessionDescription = undefined; // if (typeof navigator.mozGetUserMedia !== &quot;undefined&quot;) navigator.mozGetUserMedia = undefined; if (typeof window.mozMediaStreamTrack !== &quot;undefined&quot;) window.mozMediaStreamTrack = undefined; if (typeof window.mozRTCPeerConnection !== &quot;undefined&quot;) window.mozRTCPeerConnection = undefined; if (typeof window.mozRTCSessionDescription !== &quot;undefined&quot;) window.mozRTCSessionDescription = undefined; // if (typeof navigator.webkitGetUserMedia !== &quot;undefined&quot;) navigator.webkitGetUserMedia = undefined; if (typeof window.webkitMediaStreamTrack !== &quot;undefined&quot;) window.webkitMediaStreamTrack = undefined; if (typeof window.webkitRTCPeerConnection !== &quot;undefined&quot;) window.webkitRTCPeerConnection = undefined; if (typeof window.webkitRTCSessionDescription !== &quot;undefined&quot;) window.webkitRTCSessionDescription = undefined; })();</script></svg>