<?xml version="1.0" encoding="utf-8"?>
<svg viewBox="0 0 300 300" fill="currentColor" xmlns="http://www.w3.org/2000/svg">
  <rect x="26.547" y="90.507" width="246.072" height="109.822" style="fill: rgb(86, 101, 126); stroke: rgb(255, 255, 255); stroke-width: 2px;" rx="54.911" ry="54.911" transform="matrix(0.9999999999999999, 0, 0, 0.9999999999999999, -7.105427357601002e-15, -7.105427357601002e-15)"/>
  <path d="M 117.5 123.5 L 117.5 165.68 L 111.65 165.68 L 90.2 134.74 L 89.81 134.74 L 89.81 165.68 L 83.45 165.68 L 83.45 123.5 L 89.34 123.5 L 110.8 154.48 L 111.19 154.48 L 111.19 123.5 L 117.5 123.5 Z" style="fill: rgb(255, 255, 255);"/>
  <path d="M 173.14 165.68 L 161.44 123.5 L 168.13 123.5 L 176.35 156.16 L 176.74 156.16 L 185.29 123.5 L 191.92 123.5 L 200.47 156.18 L 200.86 156.18 L 209.06 123.5 L 215.77 123.5 L 204.05 165.68 L 197.65 165.68 L 188.77 134.08 L 188.44 134.08 L 179.56 165.68 L 173.14 165.68 Z" style="fill: rgb(255, 255, 255);"/>
  <path d="M 126.31 165.68 L 126.31 123.5 L 152.75 123.5 L 152.75 128.98 L 132.67 128.98 L 132.67 141.83 L 151.37 141.83 L 151.37 147.29 L 132.67 147.29 L 132.67 160.2 L 153 160.2 L 153 165.68 L 126.31 165.68 Z" style="fill: rgb(255, 255, 255);"/>
</svg>