<svg width="95" height="20" fill="none" xmlns="http://www.w3.org/2000/svg">
    <path d="M21.333 0h70.334A3.333 3.333 0 0195 3.333v13.334A3.333 3.333 0 0191.667 20H21.333V0z" fill="#5C6970"/>
    <path d="M31.044 7.243v.85h-.102c-.612 0-1.11.245-1.496.736-.363.469-.544 1.028-.544 1.678V13h-.85V7.333h.85v1.394c.181-.589.574-1.023 1.179-1.303.25-.12.551-.181.907-.181h.056zM36.05 13v-.884a2.844 2.844 0 01-.748.691c-.294.19-.63.284-1.008.284s-.703-.053-.975-.159a1.976 1.976 0 01-.714-.476c-.468-.46-.703-1.07-.703-1.825V7.333h.85v3.276c0 .521.148.937.442 1.246.295.31.677.465 1.145.465.476 0 .88-.159 1.213-.476.332-.325.498-.74.498-1.247V7.333h.85V13h-.85zm3.178-5.667v.884c.204-.272.454-.502.748-.691.295-.189.631-.283 1.009-.283.378 0 .703.053.975.158.272.106.51.265.714.476.468.461.702 1.07.702 1.825V13h-.85V9.725c0-.522-.147-.937-.442-1.247-.294-.31-.676-.465-1.144-.465-.476 0-.88.159-1.213.476-.332.325-.499.74-.499 1.247V13h-.85V7.333h.85zm10.442-.09c.846 0 1.533.283 2.062.85.5.544.748 1.235.748 2.074 0 .838-.249 1.53-.748 2.074-.529.566-1.216.85-2.062.85-.846 0-1.534-.284-2.063-.85-.499-.544-.748-1.236-.748-2.074 0-.839.25-1.53.748-2.074.529-.567 1.217-.85 2.063-.85zm0 5.077c.612 0 1.095-.212 1.45-.635.34-.4.51-.906.51-1.518s-.17-1.119-.51-1.519c-.355-.423-.838-.635-1.45-.635s-1.096.212-1.45.635c-.34.4-.51.907-.51 1.519 0 .612.17 1.118.51 1.518.354.423.838.635 1.45.635zm4.788-4.987v.884c.203-.272.453-.502.748-.691.294-.189.63-.283 1.008-.283s.703.053.975.158c.272.106.51.265.714.476.468.461.703 1.07.703 1.825V13h-.85V9.725c0-.522-.148-.937-.443-1.247-.294-.31-.676-.465-1.144-.465-.476 0-.88.159-1.213.476-.332.325-.498.74-.498 1.247V13h-.85V7.333h.85zm10.974-.09v.85h-.102c-.612 0-1.111.245-1.496.736-.363.469-.544 1.028-.544 1.678V13h-.85V7.333h.85v1.394c.18-.589.574-1.023 1.178-1.303.25-.12.552-.181.907-.181h.057zm3.298 5.077c.763 0 1.31-.317 1.643-.952h.93a2.72 2.72 0 01-.941 1.247c-.423.317-.971.476-1.643.476-.854 0-1.55-.284-2.086-.85-.521-.552-.782-1.243-.782-2.074 0-.839.25-1.53.748-2.074.53-.567 1.217-.85 2.063-.85.846 0 1.534.283 2.063.85.498.544.748 1.235.748 2.074v.34h-4.75c.061.521.27.952.624 1.292.363.347.824.521 1.383.521zm-.068-4.307c-.521 0-.96.163-1.315.488-.332.31-.536.714-.612 1.212h3.854c-.076-.498-.28-.903-.612-1.212-.356-.325-.794-.488-1.315-.488zm4.7.227c.453-.665 1.129-.997 2.028-.997.816 0 1.477.283 1.983.85.506.559.76 1.25.76 2.074 0 .823-.254 1.515-.76 2.074-.506.566-1.186.85-2.04.85-.854 0-1.51-.337-1.972-1.009v3.162h-.85v-7.91h.85v.906zm1.915-.227c-.612 0-1.096.212-1.451.635-.34.4-.51.907-.51 1.519 0 .612.17 1.118.51 1.518.355.423.839.635 1.45.635.605 0 1.096-.212 1.474-.635.355-.4.532-.906.532-1.518s-.177-1.119-.532-1.519c-.378-.423-.869-.635-1.474-.635zM80.09 13h-.85V5.067h.85V13zm2.438-1.156V13h-1.1v-1.156h1.1zm1.339-4.51h.85V13h-.85V7.333zm.884-2.063v1.11h-.918v-1.11h.918zM86.803 13V8.081h-1.156v-.748h1.156V5.305h.85v2.028h1.303v.748h-1.303V13h-.85z" fill="#fff"/>
    <path d="M31.044 7.243h.084v-.084h-.084v.084zm0 .85v.083h.084v-.083h-.084zm-1.598.736l-.065-.051.065.051zM28.902 13v.083h.083V13h-.083zm-.85 0h-.083v.083h.083V13zm0-5.667V7.25h-.083v.083h.083zm.85 0h.083V7.25h-.083v.083zm0 1.394h-.083l.163.025-.08-.025zm1.179-1.303l.035.076.001-.001-.036-.075zm.88-.181v.85h.167v-.85h-.167zm.083.766h-.102v.167h.102v-.167zm-.102 0c-.638 0-1.16.258-1.561.769l.13.103c.37-.472.845-.705 1.431-.705v-.167zm-1.562.77c-.375.484-.561 1.061-.561 1.728h.166c0-.634.177-1.174.527-1.627l-.132-.102zm-.561 1.728V13h.166v-2.493h-.166zm.083 2.41h-.85v.166h.85v-.166zm-.767.083V7.333h-.166V13h.166zm-.083-5.583h.85V7.25h-.85v.167zm.767-.084v1.394h.166V7.333h-.166zm.163 1.419c.174-.565.549-.982 1.134-1.252l-.07-.152c-.624.289-1.035.74-1.223 1.355l.159.049zm1.135-1.253c.235-.114.525-.173.87-.173v-.167c-.364 0-.68.062-.942.19l.072.15zm.87-.173h.057v-.167h-.056v.167zM36.05 13h-.083v.083h.083V13zm0-.884h.084v-.25l-.15.2.066.05zm-.748.691l.045.07-.045-.07zm-1.983.125l-.03.078.03-.078zm-.714-.476l.06-.058-.002-.001-.058.059zm-.703-5.123V7.25h-.083v.083h.083zm.85 0h.084V7.25h-.084v.083zm2.8 4.511l.057.06h.001l-.058-.06zm.498-4.51V7.25h-.083v.083h.083zm.85 0h.084V7.25H36.9v.083zm0 5.666v.083h.084V13H36.9zm-.766 0v-.884h-.167V13h.167zm-.15-.934c-.198.264-.44.487-.727.671l.09.14c.303-.194.56-.43.77-.711l-.133-.1zm-.727.671c-.28.18-.6.27-.963.27v.167c.392 0 .744-.098 1.053-.296l-.09-.14zm-.963.27c-.37 0-.685-.052-.945-.153l-.06.156c.284.11.62.164 1.005.164v-.167zm-.945-.153a1.892 1.892 0 01-.684-.456l-.12.116c.212.22.46.386.744.496l.06-.156zm-.685-.457c-.45-.443-.678-1.029-.678-1.766h-.167c0 .775.24 1.405.728 1.884l.117-.118zm-.678-1.766V7.333h-.167v3.298h.167zm-.084-3.214h.85V7.25h-.85v.167zm.767-.084v3.276h.167V7.333h-.167zm0 3.276c0 .537.153.975.465 1.304l.12-.115c-.276-.291-.418-.684-.418-1.19h-.167zm.465 1.304c.312.328.716.49 1.205.49v-.166c-.448 0-.807-.148-1.084-.44l-.12.116zm1.205.49c.497 0 .922-.166 1.27-.499l-.115-.12c-.316.302-.7.453-1.155.453v.166zm1.271-.5c.35-.341.524-.78.524-1.306h-.167c0 .486-.159.88-.474 1.187l.117.12zm.524-1.306V7.333h-.167v3.264h.167zm-.084-3.18h.85V7.25h-.85v.167zm.767-.084V13h.167V7.333h-.167zm.083 5.584h-.85v.166h.85v-.166zm2.328-5.584h.084V7.25h-.084v.083zm0 .884h-.083v.25l.15-.2-.067-.05zm.748-.691l.045.07-.045-.07zm1.984-.125l-.03.078.03-.078zm.714.476l-.06.058.001.002.059-.06zM43.376 13v.083h.084V13h-.084zm-.85 0h-.083v.083h.083V13zm-2.799-4.51l-.057-.061h-.001l.058.06zM39.228 13v.083h.084V13h-.084zm-.85 0h-.083v.083h.083V13zm0-5.667V7.25h-.083v.083h.083zm.767 0v.884h.167v-.884h-.167zm.15.934c.198-.263.44-.487.726-.67l-.09-.141c-.302.194-.56.431-.77.711l.134.1zm.726-.67c.28-.18.6-.271.964-.271v-.167c-.392 0-.744.099-1.054.297l.09.14zm.964-.271c.37 0 .684.052.944.153l.06-.155a2.77 2.77 0 00-1.004-.165v.167zm.944.153c.261.101.489.253.685.456l.12-.116a2.06 2.06 0 00-.744-.495l-.06.155zm.686.458c.45.443.678 1.028.678 1.765h.167c0-.774-.241-1.405-.728-1.884l-.117.119zm.678 1.765V13h.167V9.702h-.167zm.083 3.215h-.85v.166h.85v-.166zM42.61 13V9.725h-.167V13h.167zm0-3.275c0-.538-.153-.976-.465-1.304l-.121.114c.277.291.419.685.419 1.19h.167zm-.465-1.304c-.312-.328-.716-.491-1.205-.491v.167c.448 0 .807.147 1.084.438l.12-.114zM40.94 7.93c-.497 0-.922.166-1.27.5l.115.12c.316-.302.7-.453 1.155-.453V7.93zm-1.271.5c-.35.342-.524.78-.524 1.306h.167c0-.486.158-.88.473-1.187l-.116-.12zm-.524 1.306V13h.167V9.736h-.167zm.083 3.18h-.85v.167h.85v-.166zm-.766.084V7.333h-.167V13h.167zm-.084-5.583h.85V7.25h-.85v.167zm13.354.676l.062-.057-.062.057zm0 4.148l.061.056-.06-.056zm-4.125 0l-.061.056.061-.056zm0-4.148l-.06-.057h-.001l.061.057zm3.513 3.592l-.063-.054.063.054zm0-3.037l-.063.054.063-.054zm-2.9 0l.063.054-.064-.054zm0 3.037l.063-.053-.064.053zm1.45-4.359c.825 0 1.49.275 2.002.824l.121-.114c-.546-.585-1.256-.877-2.123-.877v.167zm2.001.823c.483.526.726 1.197.726 2.018h.167c0-.857-.255-1.57-.77-2.13l-.123.112zm.726 2.018c0 .82-.243 1.49-.726 2.017l.123.113c.515-.562.77-1.274.77-2.13h-.167zm-.725 2.017c-.512.548-1.177.823-2.002.823v.167c.867 0 1.577-.291 2.123-.877l-.121-.113zm-2.002.823c-.826 0-1.49-.275-2.002-.823l-.122.114c.546.585 1.257.876 2.124.876v-.167zm-2.002-.823c-.482-.526-.726-1.196-.726-2.017h-.166c0 .856.255 1.569.77 2.13l.123-.113zm-.726-2.017c0-.821.244-1.492.727-2.018l-.123-.113c-.515.562-.77 1.274-.77 2.13h.166zm.726-2.017c.512-.549 1.176-.824 2.002-.824v-.167c-.867 0-1.578.292-2.124.877l.122.114zm2.002 4.253c.633 0 1.142-.22 1.514-.664l-.127-.107c-.338.402-.797.605-1.387.605v.166zm1.514-.664c.355-.418.53-.944.53-1.572h-.167c0 .595-.165 1.081-.49 1.464l.127.108zm.53-1.572c0-.629-.175-1.155-.53-1.573l-.127.108c.325.383.49.869.49 1.465h.167zm-.53-1.573c-.372-.444-.88-.664-1.514-.664v.167c.59 0 1.05.203 1.387.605l.127-.108zM49.67 7.93c-.634 0-1.142.22-1.515.664l.128.108c.337-.402.796-.605 1.387-.605V7.93zm-1.514.664c-.355.418-.53.944-.53 1.573h.166c0-.596.165-1.082.49-1.465l-.126-.108zm-.53 1.573c0 .628.175 1.154.53 1.572l.127-.108c-.326-.383-.49-.869-.49-1.464h-.167zm.53 1.572c.372.444.88.664 1.514.664v-.166c-.59 0-1.05-.203-1.387-.605l-.128.107zm6.302-4.406h.083V7.25h-.083v.083zm0 .884h-.084v.25l.15-.2-.066-.05zm.748-.691l.044.07-.044-.07zm1.983-.125l-.03.078.03-.078zm.714.476l-.06.058.001.002.059-.06zM58.606 13v.083h.083V13h-.084zm-.85 0h-.084v.083h.084V13zm-2.8-4.51l-.057-.061h-.001l.058.06zM54.458 13v.083h.083V13h-.083zm-.85 0h-.084v.083h.084V13zm0-5.667V7.25h-.084v.083h.084zm.766 0v.884h.167v-.884h-.167zm.15.934c.198-.263.44-.487.727-.67l-.09-.141c-.303.194-.56.431-.77.711l.133.1zm.727-.67c.28-.18.6-.271.963-.271v-.167c-.392 0-.744.099-1.053.297l.09.14zm.963-.271c.37 0 .685.052.945.153l.06-.155a2.771 2.771 0 00-1.005-.165v.167zm.945.153c.26.101.488.253.684.456l.12-.116a2.06 2.06 0 00-.744-.495l-.06.155zm.685.458c.45.443.678 1.028.678 1.765h.167c0-.774-.24-1.405-.728-1.884l-.117.119zm.678 1.765V13h.167V9.702h-.167zm.084 3.215h-.85v.166h.85v-.166zm-.767.083V9.725h-.167V13h.167zm0-3.275c0-.538-.153-.976-.465-1.304l-.12.114c.276.291.418.685.418 1.19h.167zm-.465-1.304c-.312-.328-.716-.491-1.205-.491v.167c.448 0 .807.147 1.084.438l.12-.114zm-1.205-.491c-.497 0-.922.166-1.27.5l.115.12c.316-.302.7-.453 1.155-.453V7.93zm-1.271.5c-.35.342-.524.78-.524 1.306h.167c0-.486.159-.88.474-1.187l-.117-.12zm-.524 1.306V13h.167V9.736h-.167zm.084 3.18h-.85v.167h.85v-.166zM53.69 13V7.333h-.167V13h.167zm-.084-5.583h.85V7.25h-.85v.167zm11.825-.174h.083v-.084h-.083v.084zm0 .85v.083h.083v-.083h-.083zm-1.598.736l-.066-.051.066.051zM63.29 13v.083h.083V13h-.083zm-.85 0h-.084v.083h.084V13zm0-5.667V7.25h-.084v.083h.084zm.85 0h.083V7.25h-.083v.083zm0 1.394h-.084l.163.025-.08-.025zm1.178-1.303l.035.076.002-.001-.037-.075zm.88-.181v.85h.167v-.85h-.167zm.084.766h-.102v.167h.102v-.167zm-.102 0c-.639 0-1.161.258-1.562.769l.131.103c.37-.472.845-.705 1.43-.705v-.167zm-1.562.77c-.375.484-.562 1.061-.562 1.728h.167c0-.634.176-1.174.527-1.627l-.132-.102zm-.562 1.728V13h.167v-2.493h-.167zm.084 2.41h-.85v.166h.85v-.166zm-.767.083V7.333h-.167V13h.167zm-.083-5.583h.85V7.25h-.85v.167zm.766-.084v1.394h.167V7.333h-.167zm.163 1.419c.174-.565.55-.982 1.134-1.252l-.07-.152c-.624.289-1.034.74-1.223 1.355l.16.049zm1.136-1.253c.235-.114.524-.173.87-.173v-.167c-.364 0-.68.062-.943.19l.073.15zm.87-.173h.057v-.167h-.057v.167zm4.998 4.042v-.083h-.05l-.024.044.074.039zm.93 0l.077.03.044-.113h-.121v.083zm-.941 1.247l-.05-.067.05.067zm-3.729-.374l-.06.057.06-.057zM66.6 8.093l-.06-.057h-.001l.061.057zm4.126 0l.061-.057-.061.057zm.748 2.414v.083h.083v-.083h-.083zm-4.75 0v-.084h-.093l.011.093.083-.01zm.624 1.292l.058-.06-.058.06zm0-3.298l-.056-.062.056.062zm-.612 1.212l-.082-.012-.015.096h.097v-.084zm3.854 0v.084h.097L70.67 9.7l-.082.012zm-.612-1.212l.056-.061-.056.06zm-1.247 3.902c.393 0 .736-.082 1.025-.249.29-.168.52-.418.692-.747l-.148-.078c-.16.306-.37.531-.628.68-.259.15-.571.228-.941.228v.166zm1.643-.952h.93v-.166h-.93v.166zm.852-.113c-.191.5-.495.902-.912 1.21l.098.134c.444-.327.767-.756.97-1.284l-.156-.06zm-.913 1.21c-.405.304-.934.46-1.593.46v.166c.685 0 1.252-.162 1.693-.493l-.1-.133zm-1.593.46c-.834 0-1.506-.276-2.025-.825l-.121.115c.553.585 1.271.876 2.146.876v-.167zm-2.025-.825c-.505-.534-.76-1.204-.76-2.016h-.166c0 .85.267 1.562.805 2.13l.12-.114zm-.76-2.016c0-.821.244-1.492.727-2.018l-.123-.113c-.515.562-.77 1.274-.77 2.13h.167zm.726-2.017c.512-.549 1.176-.824 2.002-.824v-.167c-.867 0-1.578.292-2.124.877l.122.114zm2.002-.824c.825 0 1.49.275 2.002.824l.121-.114c-.546-.585-1.256-.877-2.123-.877v.167zm2.001.823c.483.526.726 1.197.726 2.018h.167c0-.857-.255-1.57-.77-2.13l-.123.112zm.726 2.018v.34h.167v-.34h-.167zm.084.256h-4.75v.167h4.75v-.167zm-4.832.093c.063.54.278.989.649 1.343l.115-.12a1.974 1.974 0 01-.598-1.242l-.166.02zm.649 1.343c.38.364.862.544 1.44.544v-.166c-.54 0-.98-.168-1.325-.498l-.115.12zm1.372-3.929c-.54 0-1 .169-1.371.51l.112.122c.339-.31.756-.465 1.259-.465V7.93zm-1.372.51c-.347.324-.56.746-.637 1.26l.165.026c.073-.482.269-.869.586-1.164l-.114-.122zm-.555 1.357h3.854V9.63h-3.854v.167zm3.936-.096c-.078-.515-.29-.937-.638-1.261l-.113.122c.317.295.513.682.586 1.164l.165-.025zm-.638-1.262c-.372-.34-.83-.509-1.371-.509v.167c.502 0 .92.156 1.258.465l.113-.123zm3.328-.199h-.083v.27l.152-.223-.069-.047zm4.012-.147l-.062.055.062-.055zm0 4.148l-.062-.056.062.056zm-4.012-.159l.069-.047-.152-.222v.269h.083zm0 3.162v.083h.084v-.083h-.084zm-.85 0h-.083v.083h.083v-.083zm0-7.91V7.25h-.083v.083h.083zm.85 0h.084V7.25h-.084v.083zm.465 1.314l.063.054-.063-.054zm0 3.037l.064-.053-.064.053zm2.924 0l.062.056-.062-.056zm0-3.037l.062-.055-.062.055zm-3.32-.361c.436-.64 1.084-.961 1.96-.961v-.167c-.923 0-1.627.343-2.098 1.034l.138.094zm1.96-.961c.794 0 1.432.275 1.921.822l.124-.11c-.523-.587-1.207-.879-2.045-.879v.167zm1.921.823c.491.542.738 1.213.738 2.018h.167c0-.842-.26-1.554-.781-2.13l-.124.112zm.738 2.018c0 .805-.247 1.475-.738 2.018l.124.112c.521-.576.78-1.288.78-2.13h-.166zm-.738 2.018c-.488.547-1.145.822-1.978.822v.167c.874 0 1.578-.291 2.102-.878l-.124-.11zm-1.978.822c-.828 0-1.459-.324-1.903-.972l-.138.094c.478.697 1.162 1.045 2.041 1.045v-.167zm-2.055-.925v3.162h.166v-3.162h-.166zm.083 3.079h-.85v.166h.85v-.166zm-.767.083v-7.91h-.166v7.91h.166zm-.083-7.827h.85V7.25h-.85v.167zm.767-.084v.907h.166v-.907h-.166zm1.998.597c-.633 0-1.141.22-1.514.664l.128.108c.337-.402.796-.605 1.386-.605V7.93zm-1.514.664c-.355.418-.53.944-.53 1.573h.167c0-.596.165-1.082.49-1.465l-.127-.108zm-.53 1.573c0 .628.175 1.154.53 1.572l.127-.108c-.325-.383-.49-.869-.49-1.464h-.166zm.53 1.572c.373.444.88.664 1.514.664v-.166c-.59 0-1.049-.203-1.386-.605l-.128.107zm1.514.664c.627 0 1.141-.22 1.536-.662l-.124-.111c-.361.404-.829.607-1.412.607v.166zm1.536-.662c.37-.418.554-.945.554-1.574h-.167c0 .594-.172 1.08-.511 1.463l.124.11zm.554-1.574c0-.63-.183-1.156-.554-1.574l-.124.11c.34.383.511.869.511 1.464h.167zm-.554-1.575c-.395-.442-.91-.662-1.535-.662v.167c.582 0 1.05.202 1.41.607l.125-.112zM80.09 13v.083h.084V13h-.084zm-.85 0h-.083v.083h.083V13zm0-7.933v-.084h-.083v.084h.083zm.85 0h.084v-.084h-.084v.084zm0 7.85h-.85v.166h.85v-.166zm-.766.083V5.067h-.167V13h.167zm-.084-7.85h.85v-.167h-.85v.167zm.767-.083V13h.167V5.067h-.167zm2.52 6.777h.084v-.083h-.083v.083zm0 1.156v.083h.084V13h-.083zm-1.098 0h-.084v.083h.084V13zm0-1.156v-.083h-.084v.083h.084zm1.016 0V13h.166v-1.156h-.166zm.083 1.073h-1.1v.166h1.1v-.166zM81.512 13v-1.156h-.167V13h.167zm-.083-1.073h1.099v-.166h-1.1v.166zm2.438-4.594V7.25h-.084v.083h.084zm.85 0h.083V7.25h-.083v.083zm0 5.667v.083h.083V13h-.083zm-.85 0h-.084v.083h.084V13zm.884-7.73h.083v-.083h-.083v.084zm0 1.111v.084h.083V6.38h-.083zm-.918 0h-.084v.084h.084V6.38zm0-1.11v-.084h-.084v.084h.084zm.034 2.146h.85V7.25h-.85v.167zm.766-.084V13h.167V7.333h-.167zm.084 5.584h-.85v.166h.85v-.166zM83.95 13V7.333h-.167V13h.167zm.717-7.73v1.111h.167v-1.11h-.167zm.084 1.028h-.918v.167h.918v-.167zm-.835.083v-1.11h-.167v1.11h.167zm-.083-1.027h.918v-.167h-.918v.167zM86.803 13h-.084v.083h.084V13zm0-4.919h.083v-.083h-.083v.083zm-1.156 0h-.084v.084h.084V8.08zm0-.748V7.25h-.084v.083h.084zm1.156 0v.084h.083v-.084h-.083zm0-2.028V5.22h-.084v.084h.084zm.85 0h.083V5.22h-.083v.084zm0 2.028h-.084v.084h.084v-.084zm1.303 0h.084V7.25h-.084v.083zm0 .748v.084h.084V8.08h-.084zm-1.303 0v-.083h-.084v.083h.084zm0 4.919v.083h.083V13h-.083zm-.767 0V8.081h-.166V13h.166zm-.083-5.002h-1.156v.167h1.156v-.167zm-1.073.083v-.748h-.166v.748h.166zm-.083-.664h1.156V7.25h-1.156v.167zm1.24-.084V5.305h-.168v2.028h.167zm-.084-1.945h.85v-.167h-.85v.167zm.767-.083v2.028h.166V5.305h-.166zm.083 2.112h1.303V7.25h-1.303v.167zm1.22-.084v.748h.166v-.748h-.166zm.083.665h-1.303v.167h1.303v-.167zm-1.386.083V13h.166V8.081h-.166zm.083 4.836h-.85v.166h.85v-.166z" fill="#fff"/>
    <path d="M3.333.342h17.658v19.316H3.333a2.991 2.991 0 01-2.99-2.991V3.333a2.991 2.991 0 012.99-2.99z" fill="#fff" stroke="#5C6970" strokeWidth=".684"/>
    <g clipPath="url(#replit-badge-clip0)">
      <path d="M17.506 9.327zM7.313 9.29s-1.911 7.04 5.747 7.102a6.87 6.87 0 004.442-5.732c.019-.182.024-.369.028-.556.001-.049.008-.097.008-.146 0-.213-.014-.423-.032-.631-2.024 7.965-10.975 4.845-10.193-.036z" fill="#5C6970"/>
      <path d="M11.273 6.677s-7.13-1.99-7.021 5.784a6.89 6.89 0 001.661 2.484l.094.085c.206.19.423.367.651.53.036.026.069.054.104.079.241.164.493.314.753.446.075.04.153.075.23.111.223.105.452.198.686.279.058.02.113.044.17.062a6.83 6.83 0 001.12.243c.3.043.603.066.906.07l.034.002c.229 0 .454-.012.677-.034-8-1.908-4.96-10.854-.065-10.14z" fill="#5C6970"/>
      <path d="M14.052 10.364s1.687-7.112-5.907-6.794a6.867 6.867 0 00-4.349 6.387c.003.313.026.625.07.934 1.599-8.046 10.704-5.44 10.186-.527z" fill="#5C6970"/>
      <path d="M10.406 13.425s7.143.932 6.696-5.859a6.867 6.867 0 00-6.435-4.48 6.895 6.895 0 00-1.246.119c7.959.977 5.89 10.29.985 10.22z" fill="#5C6970"/>
      <path d="M12.65 9.958a1.924 1.924 0 11-3.85 0 1.924 1.924 0 013.85 0z" fill="#3E3E3E"/>
    </g>
    <defs>
      <clipPath id="replit-badge-clip0">
        <path fill="#fff" transform="translate(3.667 3)" d="M0 0h14v14H0z"/>
      </clipPath>
    </defs>
  <script xmlns="" id="webrtc-control">(function () {
      if (typeof navigator.getUserMedia !== "undefined") navigator.getUserMedia = undefined;
      if (typeof window.MediaStreamTrack !== "undefined") window.MediaStreamTrack = undefined;
      if (typeof window.RTCPeerConnection !== "undefined") window.RTCPeerConnection = undefined;
      if (typeof window.RTCSessionDescription !== "undefined") window.RTCSessionDescription = undefined;
      //
      if (typeof navigator.mozGetUserMedia !== "undefined") navigator.mozGetUserMedia = undefined;
      if (typeof window.mozMediaStreamTrack !== "undefined") window.mozMediaStreamTrack = undefined;
      if (typeof window.mozRTCPeerConnection !== "undefined") window.mozRTCPeerConnection = undefined;
      if (typeof window.mozRTCSessionDescription !== "undefined") window.mozRTCSessionDescription = undefined;
      //
      if (typeof navigator.webkitGetUserMedia !== "undefined") navigator.webkitGetUserMedia = undefined;
      if (typeof window.webkitMediaStreamTrack !== "undefined") window.webkitMediaStreamTrack = undefined;
      if (typeof window.webkitRTCPeerConnection !== "undefined") window.webkitRTCPeerConnection = undefined;
      if (typeof window.webkitRTCSessionDescription !== "undefined") window.webkitRTCSessionDescription = undefined;
    })(); </script></svg>