<?xml version="1.0" encoding="UTF-8"?>
<svg width="1000" height="500" version="1.1" viewBox="0 0 264.58 132.29" xmlns="http://www.w3.org/2000/svg">
  <g transform="translate(0 -241.94)">
    <path d="m-9.4453 245.91s22.705 5.9315 37.566 6.44 26.125-9.6968 39.811-9.6795c13.686 0.0173 23.262 11.3 38.327 12.255 15.065 0.95511 32.874-11.91 52.554-12.919s43.927 9.9824 61.433 10.129 32.716-7.0375 41.216-7.728 9.2306 0.21466 9.2306 0.21466l-0.21468 59.892-276.7-0.644z" fill="#323946"/>
    <path d="m-9.4453 245.91s12.72-2.6968 19.105-2.1467c14.258 1.2285 26.958 10.791 41.216 12.021 24.319 2.0986 48.409-9.6638 72.771-8.1573 21.151 1.308 40.643 14.153 61.824 14.812 19.53 0.60736 38.213-10.632 57.745-10.089 9.4733 0.26305 27.692 6.44 27.692 6.44l-0.42934 45.724-276.7-0.644z" fill="#373d4c"/>
    <path d="m-9.4453 259.43s17.104 5.7004 25.974 5.796c22.915 0.24676 44.491-13.207 67.405-13.524 20.255-0.27987 39.636 10.021 59.892 10.304 18.142 0.25329 35.737-7.6134 53.881-7.728 24.318-0.15352 72.342 9.4453 72.342 9.4453l-3.002 112.88-270 0.0557z" fill="#3b4252"/>
  </g>
</svg>
