<?xml version="1.0" encoding="utf-8"?>
<svg xmlns="http://www.w3.org/2000/svg" viewBox="0 0 500 500" xmlns:bx="https://boxy-svg.com">
  <defs>
    <bx:export>
      <bx:file format="webp" path="git.webp" width="300" height="300"/>
    </bx:export>
  </defs>
  <path d="M 318.117 30.233 C 318.117 21.045 312.631 12.708 304.116 9.202 C 295.601 5.698 285.856 7.687 279.328 14.129 L 226.347 67.178 C 217.452 76.081 217.452 90.481 226.347 99.291 L 279.328 152.338 C 285.856 158.876 295.601 160.769 304.116 157.265 C 312.631 153.758 318.117 145.518 318.117 136.329 L 318.117 113.594 L 340.824 113.594 C 357.569 113.594 371.099 127.141 371.099 143.907 L 371.099 347.29 C 344.324 358.941 325.688 385.655 325.688 416.726 C 325.688 458.596 359.557 492.509 401.374 492.509 C 443.191 492.509 477.062 458.596 477.062 416.726 C 477.062 385.655 458.423 358.941 431.649 347.29 L 431.649 143.907 C 431.649 93.702 390.966 52.968 340.824 52.968 L 318.117 52.968 L 318.117 30.233 Z M 75.919 83.282 C 75.919 70.682 86.042 60.546 98.624 60.546 C 111.206 60.546 121.33 70.682 121.33 83.282 C 121.33 95.881 111.206 106.016 98.624 106.016 C 86.042 106.016 75.919 95.881 75.919 83.282 Z M 128.898 152.718 C 155.673 141.066 174.311 114.353 174.311 83.282 C 174.311 41.411 140.443 7.498 98.624 7.498 C 56.806 7.498 22.937 41.411 22.937 83.282 C 22.937 114.353 41.575 141.066 68.348 152.718 L 68.348 347.196 C 41.575 358.848 22.937 385.561 22.937 416.631 C 22.937 458.502 56.806 492.415 98.624 492.415 C 140.443 492.415 174.311 458.502 174.311 416.631 C 174.311 385.561 155.673 358.848 128.898 347.196 L 128.898 152.718 Z M 75.919 416.726 C 75.919 404.126 86.042 393.991 98.624 393.991 C 111.206 393.991 121.33 404.126 121.33 416.726 C 121.33 429.326 111.206 439.461 98.624 439.461 C 86.042 439.461 75.919 429.326 75.919 416.726 Z M 401.374 393.991 C 413.958 393.991 424.08 404.126 424.08 416.726 C 424.08 429.326 413.958 439.461 401.374 439.461 C 388.79 439.461 378.667 429.326 378.667 416.726 C 378.667 404.126 388.79 393.991 401.374 393.991 Z" style="fill: rgb(83, 32, 36); stroke-width: 7px; stroke-linejoin: round; stroke: rgb(242, 87, 92);"/>
</svg>